CATALOG 0000000000000
FILE "Mahjong Taikai II Special (Japan) (Rev A) (10M) (Track 01).bin" BINARY
  TRACK 01 MODE1/2352
    INDEX 01 00:00:00
FILE "Mahjong Taikai II Special (Japan) (Rev A) (10M) (Track 02).bin" BINARY
  TRACK 02 AUDIO
    INDEX 00 00:00:00
    INDEX 01 00:02:00
FILE "Mahjong Taikai II Special (Japan) (Rev A) (10M) (Track 03).bin" BINARY
  TRACK 03 AUDIO
    INDEX 00 00:00:00
    INDEX 01 00:02:00
    INDEX 02 00:06:24
    INDEX 03 00:06:28
    INDEX 04 00:09:58
    INDEX 05 00:09:62
    INDEX 06 00:13:28
    INDEX 07 00:13:32
    INDEX 08 00:17:59
    INDEX 09 00:17:63
    INDEX 10 00:20:17
    INDEX 11 00:20:21
    INDEX 12 00:25:66
    INDEX 13 00:25:70
    INDEX 14 00:31:13
    INDEX 15 00:31:17
    INDEX 16 00:34:12
    INDEX 17 00:34:16
    INDEX 18 00:38:04
    INDEX 19 00:38:08
    INDEX 20 00:42:30
    INDEX 21 00:42:34
    INDEX 22 00:46:19
    INDEX 23 00:46:23
    INDEX 24 00:49:07
    INDEX 25 00:49:11
    INDEX 26 00:53:42
    INDEX 27 00:53:46
    INDEX 28 00:56:30
    INDEX 29 00:56:34
    INDEX 30 01:00:46
    INDEX 31 01:00:50
    INDEX 32 01:05:41
    INDEX 33 01:05:45
    INDEX 34 01:09:47
    INDEX 35 01:09:51
    INDEX 36 01:15:06
    INDEX 37 01:15:10
    INDEX 38 01:18:60
    INDEX 39 01:18:64
    INDEX 40 01:24:55
    INDEX 41 01:24:59
    INDEX 42 01:25:36
    INDEX 43 01:25:40
    INDEX 44 01:26:28
    INDEX 45 01:26:32
    INDEX 46 01:27:07
    INDEX 47 01:27:11
    INDEX 48 01:28:02
    INDEX 49 01:28:06
    INDEX 50 01:28:38
    INDEX 51 01:28:42
    INDEX 52 01:29:01
    INDEX 53 01:29:05
    INDEX 54 01:30:10
    INDEX 55 01:30:14
    INDEX 56 01:31:16
    INDEX 57 01:31:20
    INDEX 58 01:32:69
FILE "Mahjong Taikai II Special (Japan) (Rev A) (10M) (Track 04).bin" BINARY
  TRACK 04 AUDIO
    INDEX 00 00:00:00
    INDEX 01 00:02:00
    INDEX 02 00:04:46
    INDEX 03 00:04:50
    INDEX 04 00:07:38
    INDEX 05 00:07:42
    INDEX 06 00:10:40
    INDEX 07 00:10:44
    INDEX 08 00:14:63
    INDEX 09 00:14:67
    INDEX 10 00:18:01
    INDEX 11 00:18:05
    INDEX 12 00:20:44
    INDEX 13 00:20:48
    INDEX 14 00:24:10
    INDEX 15 00:24:14
    INDEX 16 00:26:08
    INDEX 17 00:26:12
    INDEX 18 00:29:03
    INDEX 19 00:29:07
    INDEX 20 00:31:51
    INDEX 21 00:31:55
    INDEX 22 00:34:07
    INDEX 23 00:34:11
    INDEX 24 00:36:69
    INDEX 25 00:36:73
    INDEX 26 00:39:62
    INDEX 27 00:39:66
    INDEX 28 00:41:49
    INDEX 29 00:41:53
    INDEX 30 00:44:09
    INDEX 31 00:44:13
    INDEX 32 00:47:53
    INDEX 33 00:47:57
    INDEX 34 00:50:41
    INDEX 35 00:50:45
    INDEX 36 00:53:45
    INDEX 37 00:53:49
    INDEX 38 00:56:42
    INDEX 39 00:56:46
    INDEX 40 00:59:00
    INDEX 41 00:59:04
    INDEX 42 00:59:35
    INDEX 43 00:59:39
    INDEX 44 01:00:13
    INDEX 45 01:00:17
    INDEX 46 01:00:51
    INDEX 47 01:00:55
    INDEX 48 01:01:54
    INDEX 49 01:01:58
    INDEX 50 01:02:24
    INDEX 51 01:02:28
    INDEX 52 01:02:70
    INDEX 53 01:02:74
    INDEX 54 01:04:10
    INDEX 55 01:04:14
    INDEX 56 01:05:06
    INDEX 57 01:05:10
    INDEX 58 01:06:20
FILE "Mahjong Taikai II Special (Japan) (Rev A) (10M) (Track 05).bin" BINARY
  TRACK 05 AUDIO
    INDEX 00 00:00:00
    INDEX 01 00:02:00
    INDEX 02 00:05:29
    INDEX 03 00:05:33
    INDEX 04 00:07:32
    INDEX 05 00:07:36
    INDEX 06 00:09:60
    INDEX 07 00:09:64
    INDEX 08 00:13:49
    INDEX 09 00:13:53
    INDEX 10 00:16:47
    INDEX 11 00:16:51
    INDEX 12 00:22:02
    INDEX 13 00:22:06
    INDEX 14 00:25:44
    INDEX 15 00:25:48
    INDEX 16 00:29:29
    INDEX 17 00:29:33
    INDEX 18 00:32:31
    INDEX 19 00:32:35
    INDEX 20 00:34:38
    INDEX 21 00:34:42
    INDEX 22 00:37:45
    INDEX 23 00:37:49
    INDEX 24 00:40:12
    INDEX 25 00:40:16
    INDEX 26 00:43:32
    INDEX 27 00:43:36
    INDEX 28 00:46:34
    INDEX 29 00:46:38
    INDEX 30 00:49:40
    INDEX 31 00:49:44
    INDEX 32 00:52:71
    INDEX 33 00:53:00
    INDEX 34 00:55:54
    INDEX 35 00:55:58
    INDEX 36 00:59:18
    INDEX 37 00:59:22
    INDEX 38 01:01:73
    INDEX 39 01:02:02
    INDEX 40 01:05:06
    INDEX 41 01:05:10
    INDEX 42 01:05:45
    INDEX 43 01:05:49
    INDEX 44 01:06:11
    INDEX 45 01:06:15
    INDEX 46 01:06:53
    INDEX 47 01:06:57
    INDEX 48 01:07:25
    INDEX 49 01:07:29
    INDEX 50 01:07:56
    INDEX 51 01:07:60
    INDEX 52 01:08:12
    INDEX 53 01:08:16
    INDEX 54 01:09:21
    INDEX 55 01:09:25
    INDEX 56 01:10:58
    INDEX 57 01:10:62
    INDEX 58 01:12:09
FILE "Mahjong Taikai II Special (Japan) (Rev A) (10M) (Track 06).bin" BINARY
  TRACK 06 AUDIO
    INDEX 00 00:00:00
    INDEX 01 00:02:00
    INDEX 02 00:06:24
    INDEX 03 00:06:28
    INDEX 04 00:08:57
    INDEX 05 00:08:61
    INDEX 06 00:12:28
    INDEX 07 00:12:32
    INDEX 08 00:16:62
    INDEX 09 00:16:66
    INDEX 10 00:22:56
    INDEX 11 00:22:60
    INDEX 12 00:27:55
    INDEX 13 00:27:59
    INDEX 14 00:31:20
    INDEX 15 00:31:24
    INDEX 16 00:35:47
    INDEX 17 00:35:51
    INDEX 18 00:38:03
    INDEX 19 00:38:07
    INDEX 20 00:41:70
    INDEX 21 00:41:74
    INDEX 22 00:44:38
    INDEX 23 00:44:42
    INDEX 24 00:47:11
    INDEX 25 00:47:15
    INDEX 26 00:51:29
    INDEX 27 00:51:33
    INDEX 28 00:56:50
    INDEX 29 00:56:54
    INDEX 30 00:59:52
    INDEX 31 00:59:56
    INDEX 32 01:02:70
    INDEX 33 01:02:74
    INDEX 34 01:07:23
    INDEX 35 01:07:27
    INDEX 36 01:11:08
    INDEX 37 01:11:12
    INDEX 38 01:14:04
    INDEX 39 01:14:08
    INDEX 40 01:18:43
    INDEX 41 01:18:47
    INDEX 42 01:19:48
    INDEX 43 01:19:52
    INDEX 44 01:20:45
    INDEX 45 01:20:49
    INDEX 46 01:21:53
    INDEX 47 01:21:57
    INDEX 48 01:22:33
    INDEX 49 01:22:37
    INDEX 50 01:22:66
    INDEX 51 01:22:70
    INDEX 52 01:23:34
    INDEX 53 01:23:38
    INDEX 54 01:25:22
    INDEX 55 01:25:26
    INDEX 56 01:26:31
    INDEX 57 01:26:35
    INDEX 58 01:27:62
FILE "Mahjong Taikai II Special (Japan) (Rev A) (10M) (Track 07).bin" BINARY
  TRACK 07 AUDIO
    INDEX 00 00:00:00
    INDEX 01 00:02:00
    INDEX 02 00:07:27
    INDEX 03 00:07:31
    INDEX 04 00:12:66
    INDEX 05 00:12:70
    INDEX 06 00:18:08
    INDEX 07 00:18:12
    INDEX 08 00:23:39
    INDEX 09 00:23:43
    INDEX 10 00:28:58
    INDEX 11 00:28:62
    INDEX 12 00:34:37
    INDEX 13 00:34:41
    INDEX 14 00:40:06
    INDEX 15 00:40:10
    INDEX 16 00:45:45
    INDEX 17 00:45:49
    INDEX 18 00:50:67
    INDEX 19 00:50:71
    INDEX 20 00:56:00
    INDEX 21 00:56:04
    INDEX 22 01:01:05
    INDEX 23 01:01:09
    INDEX 24 01:05:56
    INDEX 25 01:05:60
    INDEX 26 01:11:38
    INDEX 27 01:11:42
    INDEX 28 01:17:28
    INDEX 29 01:17:32
    INDEX 30 01:22:23
    INDEX 31 01:22:27
    INDEX 32 01:27:47
    INDEX 33 01:27:51
    INDEX 34 01:32:68
    INDEX 35 01:32:72
    INDEX 36 01:37:70
    INDEX 37 01:37:74
    INDEX 38 01:43:03
    INDEX 39 01:43:07
    INDEX 40 01:48:34
    INDEX 41 01:48:38
    INDEX 42 01:48:73
    INDEX 43 01:49:02
    INDEX 44 01:49:53
    INDEX 45 01:49:57
    INDEX 46 01:50:26
    INDEX 47 01:50:30
    INDEX 48 01:51:23
    INDEX 49 01:51:27
    INDEX 50 01:51:69
    INDEX 51 01:51:73
    INDEX 52 01:52:50
    INDEX 53 01:52:54
    INDEX 54 01:54:23
    INDEX 55 01:54:27
    INDEX 56 01:55:71
    INDEX 57 01:56:00
    INDEX 58 01:57:72
FILE "Mahjong Taikai II Special (Japan) (Rev A) (10M) (Track 08).bin" BINARY
  TRACK 08 AUDIO
    INDEX 00 00:00:00
    INDEX 01 00:02:00
    INDEX 02 00:04:40
    INDEX 03 00:04:44
    INDEX 04 00:05:70
    INDEX 05 00:05:74
    INDEX 06 00:08:56
    INDEX 07 00:08:60
    INDEX 08 00:11:55
    INDEX 09 00:11:59
    INDEX 10 00:14:71
    INDEX 11 00:15:00
    INDEX 12 00:18:28
    INDEX 13 00:18:32
    INDEX 14 00:21:43
    INDEX 15 00:21:47
    INDEX 16 00:24:72
    INDEX 17 00:25:01
    INDEX 18 00:28:27
    INDEX 19 00:28:31
    INDEX 20 00:30:58
    INDEX 21 00:30:62
    INDEX 22 00:33:48
    INDEX 23 00:33:52
    INDEX 24 00:36:29
    INDEX 25 00:36:33
    INDEX 26 00:39:64
    INDEX 27 00:39:68
    INDEX 28 00:41:53
    INDEX 29 00:41:57
    INDEX 30 00:44:34
    INDEX 31 00:44:38
    INDEX 32 00:48:03
    INDEX 33 00:48:07
    INDEX 34 00:51:55
    INDEX 35 00:51:59
    INDEX 36 00:55:12
    INDEX 37 00:55:16
    INDEX 38 00:58:41
    INDEX 39 00:58:45
    INDEX 40 01:01:42
    INDEX 41 01:01:46
    INDEX 42 01:02:03
    INDEX 43 01:02:07
    INDEX 44 01:02:52
    INDEX 45 01:02:56
    INDEX 46 01:03:22
    INDEX 47 01:03:26
    INDEX 48 01:04:05
    INDEX 49 01:04:09
    INDEX 50 01:04:46
    INDEX 51 01:04:50
    INDEX 52 01:05:24
    INDEX 53 01:05:28
    INDEX 54 01:06:63
    INDEX 55 01:06:67
    INDEX 56 01:08:47
    INDEX 57 01:08:51
    INDEX 58 01:09:32
FILE "Mahjong Taikai II Special (Japan) (Rev A) (10M) (Track 09).bin" BINARY
  TRACK 09 AUDIO
    INDEX 00 00:00:00
    INDEX 01 00:02:00
    INDEX 02 00:04:69
    INDEX 03 00:04:73
    INDEX 04 00:06:18
    INDEX 05 00:06:22
    INDEX 06 00:08:17
    INDEX 07 00:08:21
    INDEX 08 00:10:74
    INDEX 09 00:11:03
    INDEX 10 00:14:48
    INDEX 11 00:14:52
    INDEX 12 00:17:49
    INDEX 13 00:17:53
    INDEX 14 00:20:19
    INDEX 15 00:20:23
    INDEX 16 00:22:40
    INDEX 17 00:22:44
    INDEX 18 00:25:54
    INDEX 19 00:25:58
    INDEX 20 00:28:53
    INDEX 21 00:28:57
    INDEX 22 00:30:35
    INDEX 23 00:30:39
    INDEX 24 00:33:58
    INDEX 25 00:33:62
    INDEX 26 00:35:59
    INDEX 27 00:35:63
    INDEX 28 00:38:17
    INDEX 29 00:38:21
    INDEX 30 00:40:47
    INDEX 31 00:40:51
    INDEX 32 00:42:74
    INDEX 33 00:43:03
    INDEX 34 00:46:00
    INDEX 35 00:46:04
    INDEX 36 00:49:07
    INDEX 37 00:49:11
    INDEX 38 00:51:32
    INDEX 39 00:51:36
    INDEX 40 00:53:09
    INDEX 41 00:53:13
    INDEX 42 00:53:53
    INDEX 43 00:53:57
    INDEX 44 00:54:30
    INDEX 45 00:54:34
    INDEX 46 00:55:03
    INDEX 47 00:55:07
    INDEX 48 00:55:42
    INDEX 49 00:55:46
    INDEX 50 00:55:68
    INDEX 51 00:55:72
    INDEX 52 00:56:27
    INDEX 53 00:56:31
    INDEX 54 00:57:09
    INDEX 55 00:57:13
    INDEX 56 00:58:28
    INDEX 57 00:58:32
    INDEX 58 00:59:20
FILE "Mahjong Taikai II Special (Japan) (Rev A) (10M) (Track 10).bin" BINARY
  TRACK 10 AUDIO
    INDEX 00 00:00:00
    INDEX 01 00:02:00
    INDEX 02 00:04:41
    INDEX 03 00:04:45
    INDEX 04 00:05:70
    INDEX 05 00:05:74
    INDEX 06 00:08:13
    INDEX 07 00:08:17
    INDEX 08 00:11:04
    INDEX 09 00:11:08
    INDEX 10 00:13:04
    INDEX 11 00:13:08
    INDEX 12 00:16:11
    INDEX 13 00:16:15
    INDEX 14 00:18:55
    INDEX 15 00:18:59
    INDEX 16 00:21:11
    INDEX 17 00:21:15
    INDEX 18 00:23:20
    INDEX 19 00:23:24
    INDEX 20 00:25:29
    INDEX 21 00:25:33
    INDEX 22 00:28:21
    INDEX 23 00:28:25
    INDEX 24 00:31:01
    INDEX 25 00:31:05
    INDEX 26 00:33:29
    INDEX 27 00:33:33
    INDEX 28 00:36:01
    INDEX 29 00:36:05
    INDEX 30 00:38:09
    INDEX 31 00:38:13
    INDEX 32 00:40:04
    INDEX 33 00:40:08
    INDEX 34 00:42:00
    INDEX 35 00:42:04
    INDEX 36 00:44:51
    INDEX 37 00:44:55
    INDEX 38 00:47:19
    INDEX 39 00:47:23
    INDEX 40 00:49:63
    INDEX 41 00:49:67
    INDEX 42 00:50:18
    INDEX 43 00:50:22
    INDEX 44 00:50:63
    INDEX 45 00:50:67
    INDEX 46 00:51:17
    INDEX 47 00:51:21
    INDEX 48 00:51:73
    INDEX 49 00:52:02
    INDEX 50 00:52:35
    INDEX 51 00:52:39
    INDEX 52 00:53:02
    INDEX 53 00:53:06
    INDEX 54 00:54:16
    INDEX 55 00:54:20
    INDEX 56 00:55:11
    INDEX 57 00:55:15
    INDEX 58 00:56:26
FILE "Mahjong Taikai II Special (Japan) (Rev A) (10M) (Track 11).bin" BINARY
  TRACK 11 AUDIO
    INDEX 00 00:00:00
    INDEX 01 00:02:00
    INDEX 02 00:05:17
    INDEX 03 00:05:21
    INDEX 04 00:07:40
    INDEX 05 00:07:44
    INDEX 06 00:10:35
    INDEX 07 00:10:39
    INDEX 08 00:14:17
    INDEX 09 00:14:21
    INDEX 10 00:16:37
    INDEX 11 00:16:41
    INDEX 12 00:19:44
    INDEX 13 00:19:48
    INDEX 14 00:22:37
    INDEX 15 00:22:41
    INDEX 16 00:24:32
    INDEX 17 00:24:36
    INDEX 18 00:27:51
    INDEX 19 00:27:55
    INDEX 20 00:30:28
    INDEX 21 00:30:32
    INDEX 22 00:34:20
    INDEX 23 00:34:24
    INDEX 24 00:38:41
    INDEX 25 00:38:45
    INDEX 26 00:40:53
    INDEX 27 00:40:57
    INDEX 28 00:45:43
    INDEX 29 00:45:47
    INDEX 30 00:48:73
    INDEX 31 00:49:02
    INDEX 32 00:51:74
    INDEX 33 00:52:03
    INDEX 34 00:55:14
    INDEX 35 00:55:18
    INDEX 36 00:57:10
    INDEX 37 00:57:14
    INDEX 38 01:01:06
    INDEX 39 01:01:10
    INDEX 40 01:05:11
    INDEX 41 01:05:15
    INDEX 42 01:07:01
    INDEX 43 01:07:05
    INDEX 44 01:08:25
    INDEX 45 01:08:29
    INDEX 46 01:10:04
    INDEX 47 01:10:08
    INDEX 48 01:10:67
    INDEX 49 01:10:71
    INDEX 50 01:11:28
    INDEX 51 01:11:32
    INDEX 52 01:11:74
    INDEX 53 01:12:03
    INDEX 54 01:14:08
    INDEX 55 01:14:12
    INDEX 56 01:14:73
    INDEX 57 01:15:02
    INDEX 58 01:16:08
FILE "Mahjong Taikai II Special (Japan) (Rev A) (10M) (Track 12).bin" BINARY
  TRACK 12 AUDIO
    INDEX 00 00:00:00
    INDEX 01 00:02:00
    INDEX 02 00:04:67
    INDEX 03 00:04:71
    INDEX 04 00:06:37
    INDEX 05 00:06:41
    INDEX 06 00:09:19
    INDEX 07 00:09:23
    INDEX 08 00:11:14
    INDEX 09 00:11:18
    INDEX 10 00:13:10
    INDEX 11 00:13:14
    INDEX 12 00:16:59
    INDEX 13 00:16:63
    INDEX 14 00:19:13
    INDEX 15 00:19:17
    INDEX 16 00:21:14
    INDEX 17 00:21:18
    INDEX 18 00:24:28
    INDEX 19 00:24:32
    INDEX 20 00:27:37
    INDEX 21 00:27:41
    INDEX 22 00:30:36
    INDEX 23 00:30:40
    INDEX 24 00:34:34
    INDEX 25 00:34:38
    INDEX 26 00:36:71
    INDEX 27 00:37:00
    INDEX 28 00:40:67
    INDEX 29 00:40:71
    INDEX 30 00:42:42
    INDEX 31 00:42:46
    INDEX 32 00:44:30
    INDEX 33 00:44:34
    INDEX 34 00:47:50
    INDEX 35 00:47:54
    INDEX 36 00:50:65
    INDEX 37 00:50:69
    INDEX 38 00:54:36
    INDEX 39 00:54:40
    INDEX 40 00:58:05
    INDEX 41 00:58:09
    INDEX 42 00:59:09
    INDEX 43 00:59:13
    INDEX 44 01:00:24
    INDEX 45 01:00:28
    INDEX 46 01:01:23
    INDEX 47 01:01:27
    INDEX 48 01:02:06
    INDEX 49 01:02:10
    INDEX 50 01:02:63
    INDEX 51 01:02:67
    INDEX 52 01:03:46
    INDEX 53 01:03:50
    INDEX 54 01:04:45
    INDEX 55 01:04:49
    INDEX 56 01:06:40
    INDEX 57 01:06:44
    INDEX 58 01:08:30
FILE "Mahjong Taikai II Special (Japan) (Rev A) (10M) (Track 13).bin" BINARY
  TRACK 13 AUDIO
    INDEX 00 00:00:00
    INDEX 01 00:02:00
    INDEX 02 00:04:33
    INDEX 03 00:04:37
    INDEX 04 00:07:04
    INDEX 05 00:07:08
    INDEX 06 00:09:73
    INDEX 07 00:10:02
    INDEX 08 00:12:48
    INDEX 09 00:12:52
    INDEX 10 00:15:49
    INDEX 11 00:15:53
    INDEX 12 00:18:25
    INDEX 13 00:18:29
    INDEX 14 00:21:34
    INDEX 15 00:21:38
    INDEX 16 00:24:40
    INDEX 17 00:24:44
    INDEX 18 00:27:08
    INDEX 19 00:27:12
    INDEX 20 00:30:52
    INDEX 21 00:30:56
    INDEX 22 00:33:35
    INDEX 23 00:33:39
    INDEX 24 00:36:12
    INDEX 25 00:36:16
    INDEX 26 00:38:64
    INDEX 27 00:38:68
    INDEX 28 00:41:09
    INDEX 29 00:41:13
    INDEX 30 00:44:16
    INDEX 31 00:44:20
    INDEX 32 00:47:43
    INDEX 33 00:47:47
    INDEX 34 00:49:74
    INDEX 35 00:50:03
    INDEX 36 00:51:53
    INDEX 37 00:51:57
    INDEX 38 00:53:54
    INDEX 39 00:53:58
    INDEX 40 00:55:58
    INDEX 41 00:55:62
    INDEX 42 00:56:11
    INDEX 43 00:56:15
    INDEX 44 00:56:44
    INDEX 45 00:56:48
    INDEX 46 00:57:04
    INDEX 47 00:57:08
    INDEX 48 00:57:54
    INDEX 49 00:57:58
    INDEX 50 00:58:11
    INDEX 51 00:58:15
    INDEX 52 00:58:51
    INDEX 53 00:58:55
    INDEX 54 00:59:51
    INDEX 55 00:59:55
    INDEX 56 01:01:17
    INDEX 57 01:01:21
    INDEX 58 01:02:71
FILE "Mahjong Taikai II Special (Japan) (Rev A) (10M) (Track 14).bin" BINARY
  TRACK 14 AUDIO
    INDEX 00 00:00:00
    INDEX 01 00:02:00
    INDEX 02 00:05:17
    INDEX 03 00:05:21
    INDEX 04 00:07:74
    INDEX 05 00:08:03
    INDEX 06 00:10:06
    INDEX 07 00:10:10
    INDEX 08 00:13:28
    INDEX 09 00:13:32
    INDEX 10 00:16:05
    INDEX 11 00:16:09
    INDEX 12 00:19:17
    INDEX 13 00:19:21
    INDEX 14 00:22:09
    INDEX 15 00:22:13
    INDEX 16 00:25:45
    INDEX 17 00:25:49
    INDEX 18 00:27:63
    INDEX 19 00:27:67
    INDEX 20 00:30:21
    INDEX 21 00:30:25
    INDEX 22 00:33:33
    INDEX 23 00:33:37
    INDEX 24 00:37:03
    INDEX 25 00:37:07
    INDEX 26 00:40:17
    INDEX 27 00:40:21
    INDEX 28 00:43:22
    INDEX 29 00:43:26
    INDEX 30 00:45:68
    INDEX 31 00:45:72
    INDEX 32 00:49:09
    INDEX 33 00:49:13
    INDEX 34 00:52:28
    INDEX 35 00:52:32
    INDEX 36 00:55:13
    INDEX 37 00:55:17
    INDEX 38 00:57:59
    INDEX 39 00:57:63
    INDEX 40 01:01:25
    INDEX 41 01:01:29
    INDEX 42 01:01:60
    INDEX 43 01:01:64
    INDEX 44 01:02:17
    INDEX 45 01:02:21
    INDEX 46 01:02:55
    INDEX 47 01:02:59
    INDEX 48 01:03:20
    INDEX 49 01:03:24
    INDEX 50 01:03:48
    INDEX 51 01:03:52
    INDEX 52 01:04:11
    INDEX 53 01:04:15
    INDEX 54 01:05:03
    INDEX 55 01:05:07
    INDEX 56 01:06:23
    INDEX 57 01:06:27
    INDEX 58 01:08:02
FILE "Mahjong Taikai II Special (Japan) (Rev A) (10M) (Track 15).bin" BINARY
  TRACK 15 AUDIO
    INDEX 00 00:00:00
    INDEX 01 00:02:00
    INDEX 02 00:03:28
    INDEX 03 00:03:32
    INDEX 04 00:04:36
    INDEX 05 00:04:40
    INDEX 06 00:05:26
    INDEX 07 00:05:30
    INDEX 08 00:07:07
    INDEX 09 00:07:11
    INDEX 10 00:10:50
    INDEX 11 00:10:55
    INDEX 12 00:13:01
    INDEX 13 00:13:05
    INDEX 14 00:15:29
    INDEX 15 00:15:33
    INDEX 16 00:17:59
    INDEX 17 00:17:63
    INDEX 18 00:20:74
    INDEX 19 00:21:03
    INDEX 20 00:22:61
    INDEX 21 00:22:65
    INDEX 22 00:24:60
    INDEX 23 00:24:64
    INDEX 24 00:26:14
    INDEX 25 00:26:18
    INDEX 26 00:30:11
    INDEX 27 00:30:15
    INDEX 28 00:31:51
    INDEX 29 00:31:55
    INDEX 30 00:33:35
    INDEX 31 00:33:39
    INDEX 32 00:36:36
    INDEX 33 00:36:40
    INDEX 34 00:39:41
    INDEX 35 00:39:45
    INDEX 36 00:41:29
    INDEX 37 00:41:33
    INDEX 38 00:42:66
    INDEX 39 00:42:70
    INDEX 40 00:45:54
    INDEX 41 00:45:58
    INDEX 42 00:46:02
    INDEX 43 00:46:06
    INDEX 44 00:46:27
    INDEX 45 00:46:31
    INDEX 46 00:46:61
    INDEX 47 00:46:65
    INDEX 48 00:47:26
    INDEX 49 00:47:30
    INDEX 50 00:47:50
    INDEX 51 00:47:54
    INDEX 52 00:48:04
    INDEX 53 00:48:08
    INDEX 54 00:49:28
    INDEX 55 00:49:32
    INDEX 56 00:50:17
    INDEX 57 00:50:21
    INDEX 58 00:50:59
FILE "Mahjong Taikai II Special (Japan) (Rev A) (10M) (Track 16).bin" BINARY
  TRACK 16 AUDIO
    INDEX 00 00:00:00
    INDEX 01 00:02:00
    INDEX 02 00:04:62
    INDEX 03 00:04:66
    INDEX 04 00:06:41
    INDEX 05 00:06:45
    INDEX 06 00:08:36
    INDEX 07 00:08:40
    INDEX 08 00:12:38
    INDEX 09 00:12:42
    INDEX 10 00:15:49
    INDEX 11 00:15:53
    INDEX 12 00:17:67
    INDEX 13 00:17:71
    INDEX 14 00:21:24
    INDEX 15 00:21:28
    INDEX 16 00:23:27
    INDEX 17 00:23:31
    INDEX 18 00:26:04
    INDEX 19 00:26:08
    INDEX 20 00:28:39
    INDEX 21 00:28:43
    INDEX 22 00:30:54
    INDEX 23 00:30:58
    INDEX 24 00:33:65
    INDEX 25 00:33:69
    INDEX 26 00:36:60
    INDEX 27 00:36:64
    INDEX 28 00:38:73
    INDEX 29 00:39:02
    INDEX 30 00:40:54
    INDEX 31 00:40:58
    INDEX 32 00:44:44
    INDEX 33 00:44:48
    INDEX 34 00:47:72
    INDEX 35 00:48:01
    INDEX 36 00:50:43
    INDEX 37 00:50:47
    INDEX 38 00:53:40
    INDEX 39 00:53:44
    INDEX 40 00:56:30
    INDEX 41 00:56:34
    INDEX 42 00:57:37
    INDEX 43 00:57:41
    INDEX 44 00:58:24
    INDEX 45 00:58:28
    INDEX 46 00:59:31
    INDEX 47 00:59:35
    INDEX 48 01:00:11
    INDEX 49 01:00:15
    INDEX 50 01:01:19
    INDEX 51 01:01:23
    INDEX 52 01:01:59
    INDEX 53 01:01:63
    INDEX 54 01:04:27
    INDEX 55 01:04:31
    INDEX 56 01:06:60
    INDEX 57 01:06:64
    INDEX 58 01:07:62
FILE "Mahjong Taikai II Special (Japan) (Rev A) (10M) (Track 17).bin" BINARY
  TRACK 17 AUDIO
    INDEX 00 00:00:00
    INDEX 01 00:02:00
    INDEX 02 00:03:15
    INDEX 03 00:03:19
    INDEX 04 00:05:15
    INDEX 05 00:05:19
    INDEX 06 00:07:19
    INDEX 07 00:07:23
    INDEX 08 00:09:43
    INDEX 09 00:09:47
    INDEX 10 00:11:37
    INDEX 11 00:11:41
    INDEX 12 00:12:67
    INDEX 13 00:12:71
    INDEX 14 00:14:64
    INDEX 15 00:14:68
    INDEX 16 00:16:06
    INDEX 17 00:16:10
    INDEX 18 00:17:61
    INDEX 19 00:17:65
    INDEX 20 00:20:07
    INDEX 21 00:20:11
    INDEX 22 00:22:20
    INDEX 23 00:22:24
    INDEX 24 00:24:53
    INDEX 25 00:24:57
    INDEX 26 00:26:70
    INDEX 27 00:26:74
    INDEX 28 00:29:35
    INDEX 29 00:29:39
    INDEX 30 00:31:28
    INDEX 31 00:31:32
    INDEX 32 00:33:44
    INDEX 33 00:33:48
    INDEX 34 00:35:72
    INDEX 35 00:36:01
    INDEX 36 00:37:35
    INDEX 37 00:37:39
    INDEX 38 00:39:13
    INDEX 39 00:39:17
    INDEX 40 00:41:47
    INDEX 41 00:41:51
    INDEX 42 00:42:26
    INDEX 43 00:42:30
    INDEX 44 00:43:05
    INDEX 45 00:43:09
    INDEX 46 00:43:61
    INDEX 47 00:43:65
    INDEX 48 00:44:29
    INDEX 49 00:44:33
    INDEX 50 00:44:59
    INDEX 51 00:44:63
    INDEX 52 00:45:18
    INDEX 53 00:45:22
    INDEX 54 00:46:00
    INDEX 55 00:46:04
    INDEX 56 00:47:02
    INDEX 57 00:47:06
    INDEX 58 00:48:14
FILE "Mahjong Taikai II Special (Japan) (Rev A) (10M) (Track 18).bin" BINARY
  TRACK 18 AUDIO
    INDEX 00 00:00:00
    INDEX 01 00:02:00
    INDEX 02 00:05:28
    INDEX 03 00:05:32
    INDEX 04 00:07:22
    INDEX 05 00:07:26
    INDEX 06 00:10:19
    INDEX 07 00:10:23
    INDEX 08 00:13:00
    INDEX 09 00:13:04
    INDEX 10 00:15:41
    INDEX 11 00:15:45
    INDEX 12 00:19:50
    INDEX 13 00:19:54
    INDEX 14 00:23:13
    INDEX 15 00:23:17
    INDEX 16 00:26:11
    INDEX 17 00:26:15
    INDEX 18 00:28:35
    INDEX 19 00:28:39
    INDEX 20 00:31:04
    INDEX 21 00:31:08
    INDEX 22 00:33:59
    INDEX 23 00:33:63
    INDEX 24 00:37:23
    INDEX 25 00:37:27
    INDEX 26 00:40:18
    INDEX 27 00:40:22
    INDEX 28 00:41:69
    INDEX 29 00:41:73
    INDEX 30 00:44:24
    INDEX 31 00:44:28
    INDEX 32 00:47:00
    INDEX 33 00:47:04
    INDEX 34 00:50:33
    INDEX 35 00:50:37
    INDEX 36 00:52:27
    INDEX 37 00:52:31
    INDEX 38 00:55:13
    INDEX 39 00:55:17
    INDEX 40 00:57:71
    INDEX 41 00:58:00
    INDEX 42 00:58:33
    INDEX 43 00:58:37
    INDEX 44 00:59:26
    INDEX 45 00:59:30
    INDEX 46 00:59:69
    INDEX 47 00:59:73
    INDEX 48 01:00:72
    INDEX 49 01:01:01
    INDEX 50 01:01:60
    INDEX 51 01:01:64
    INDEX 52 01:02:32
    INDEX 53 01:02:36
    INDEX 54 01:04:18
    INDEX 55 01:04:22
    INDEX 56 01:05:72
    INDEX 57 01:06:01
    INDEX 58 01:07:09
FILE "Mahjong Taikai II Special (Japan) (Rev A) (10M) (Track 19).bin" BINARY
  TRACK 19 AUDIO
    INDEX 00 00:00:00
    INDEX 01 00:02:00
    INDEX 02 00:03:67
    INDEX 03 00:03:71
    INDEX 04 00:05:28
    INDEX 05 00:05:32
    INDEX 06 00:07:69
    INDEX 07 00:07:73
    INDEX 08 00:10:33
    INDEX 09 00:10:37
    INDEX 10 00:13:03
    INDEX 11 00:13:07
    INDEX 12 00:15:41
    INDEX 13 00:15:45
    INDEX 14 00:17:44
    INDEX 15 00:17:48
    INDEX 16 00:20:35
    INDEX 17 00:20:39
    INDEX 18 00:22:74
    INDEX 19 00:23:03
    INDEX 20 00:25:20
    INDEX 21 00:25:24
    INDEX 22 00:28:10
    INDEX 23 00:28:14
    INDEX 24 00:30:37
    INDEX 25 00:30:41
    INDEX 26 00:32:62
    INDEX 27 00:32:66
    INDEX 28 00:35:24
    INDEX 29 00:35:28
    INDEX 30 00:38:10
    INDEX 31 00:38:14
    INDEX 32 00:40:55
    INDEX 33 00:40:59
    INDEX 34 00:42:44
    INDEX 35 00:42:48
    INDEX 36 00:45:32
    INDEX 37 00:45:36
    INDEX 38 00:48:12
    INDEX 39 00:48:16
    INDEX 40 00:50:69
    INDEX 41 00:50:73
    INDEX 42 00:51:26
    INDEX 43 00:51:30
    INDEX 44 00:51:59
    INDEX 45 00:51:63
    INDEX 46 00:52:20
    INDEX 47 00:52:24
    INDEX 48 00:52:65
    INDEX 49 00:52:69
    INDEX 50 00:53:34
    INDEX 51 00:53:38
    INDEX 52 00:54:04
    INDEX 53 00:54:08
    INDEX 54 00:55:22
    INDEX 55 00:55:26
    INDEX 56 00:56:24
    INDEX 57 00:56:28
    INDEX 58 00:57:33
FILE "Mahjong Taikai II Special (Japan) (Rev A) (10M) (Track 20).bin" BINARY
  TRACK 20 AUDIO
    INDEX 00 00:00:00
    INDEX 01 00:02:00
    INDEX 02 00:04:65
    INDEX 03 00:04:69
    INDEX 04 00:06:26
    INDEX 05 00:06:30
    INDEX 06 00:08:32
    INDEX 07 00:08:36
    INDEX 08 00:11:23
    INDEX 09 00:11:27
    INDEX 10 00:13:13
    INDEX 11 00:13:17
    INDEX 12 00:16:50
    INDEX 13 00:16:54
    INDEX 14 00:18:66
    INDEX 15 00:18:70
    INDEX 16 00:22:33
    INDEX 17 00:22:37
    INDEX 18 00:25:48
    INDEX 19 00:25:52
    INDEX 20 00:28:39
    INDEX 21 00:28:43
    INDEX 22 00:32:06
    INDEX 23 00:32:10
    INDEX 24 00:35:29
    INDEX 25 00:35:33
    INDEX 26 00:38:26
    INDEX 27 00:38:30
    INDEX 28 00:41:01
    INDEX 29 00:41:05
    INDEX 30 00:43:59
    INDEX 31 00:43:63
    INDEX 32 00:45:69
    INDEX 33 00:45:73
    INDEX 34 00:48:11
    INDEX 35 00:48:15
    INDEX 36 00:50:62
    INDEX 37 00:50:66
    INDEX 38 00:53:59
    INDEX 39 00:53:63
    INDEX 40 00:55:57
    INDEX 41 00:55:61
    INDEX 42 00:56:37
    INDEX 43 00:56:41
    INDEX 44 00:57:13
    INDEX 45 00:57:17
    INDEX 46 00:57:64
    INDEX 47 00:57:68
    INDEX 48 00:58:36
    INDEX 49 00:58:40
    INDEX 50 00:58:66
    INDEX 51 00:58:70
    INDEX 52 00:59:31
    INDEX 53 00:59:35
    INDEX 54 01:00:41
    INDEX 55 01:00:45
    INDEX 56 01:01:50
    INDEX 57 01:01:54
    INDEX 58 01:02:61
FILE "Mahjong Taikai II Special (Japan) (Rev A) (10M) (Track 21).bin" BINARY
  TRACK 21 AUDIO
    INDEX 00 00:00:00
    INDEX 01 00:02:00
    INDEX 02 00:05:25
    INDEX 03 00:05:29
    INDEX 04 00:09:36
    INDEX 05 00:09:40
    INDEX 06 00:13:02
    INDEX 07 00:13:06
    INDEX 08 00:16:72
    INDEX 09 00:17:01
    INDEX 10 00:21:16
    INDEX 11 00:21:20
    INDEX 12 00:25:73
    INDEX 13 00:26:02
    INDEX 14 00:30:55
    INDEX 15 00:30:59
    INDEX 16 00:34:16
    INDEX 17 00:34:20
    INDEX 18 00:39:21
    INDEX 19 00:39:25
    INDEX 20 00:44:01
    INDEX 21 00:44:05
    INDEX 22 00:47:43
    INDEX 23 00:47:47
    INDEX 24 00:51:09
    INDEX 25 00:51:13
    INDEX 26 00:54:61
    INDEX 27 00:54:65
    INDEX 28 00:58:03
    INDEX 29 00:58:07
    INDEX 30 01:01:22
    INDEX 31 01:01:26
    INDEX 32 01:03:70
    INDEX 33 01:03:74
    INDEX 34 01:07:07
    INDEX 35 01:07:11
    INDEX 36 01:11:04
    INDEX 37 01:11:08
    INDEX 38 01:15:11
    INDEX 39 01:15:15
    INDEX 40 01:19:46
    INDEX 41 01:19:50
    INDEX 42 01:20:63
    INDEX 43 01:20:67
    INDEX 44 01:22:06
    INDEX 45 01:22:10
    INDEX 46 01:23:21
    INDEX 47 01:23:25
    INDEX 48 01:24:12
    INDEX 49 01:24:16
    INDEX 50 01:24:48
    INDEX 51 01:24:52
    INDEX 52 01:25:11
    INDEX 53 01:25:15
    INDEX 54 01:26:30
    INDEX 55 01:26:34
    INDEX 56 01:27:41
    INDEX 57 01:27:45
    INDEX 58 01:29:03
FILE "Mahjong Taikai II Special (Japan) (Rev A) (10M) (Track 22).bin" BINARY
  TRACK 22 AUDIO
    INDEX 00 00:00:00
    INDEX 01 00:02:00
    INDEX 02 00:04:65
    INDEX 03 00:04:69
    INDEX 04 00:06:08
    INDEX 05 00:06:12
    INDEX 06 00:08:23
    INDEX 07 00:08:27
    INDEX 08 00:10:42
    INDEX 09 00:10:46
    INDEX 10 00:15:16
    INDEX 11 00:15:20
    INDEX 12 00:16:60
    INDEX 13 00:16:64
    INDEX 14 00:19:12
    INDEX 15 00:19:16
    INDEX 16 00:21:54
    INDEX 17 00:21:58
    INDEX 18 00:24:20
    INDEX 19 00:24:24
    INDEX 20 00:28:18
    INDEX 21 00:28:22
    INDEX 22 00:31:33
    INDEX 23 00:31:37
    INDEX 24 00:34:57
    INDEX 25 00:34:61
    INDEX 26 00:37:03
    INDEX 27 00:37:07
    INDEX 28 00:40:12
    INDEX 29 00:40:16
    INDEX 30 00:42:70
    INDEX 31 00:42:74
    INDEX 32 00:46:26
    INDEX 33 00:46:30
    INDEX 34 00:48:43
    INDEX 35 00:48:47
    INDEX 36 00:52:15
    INDEX 37 00:52:19
    INDEX 38 00:55:49
    INDEX 39 00:55:53
    INDEX 40 00:59:24
    INDEX 41 00:59:28
    INDEX 42 00:59:52
    INDEX 43 00:59:56
    INDEX 44 01:00:06
    INDEX 45 01:00:10
    INDEX 46 01:00:35
    INDEX 47 01:00:39
    INDEX 48 01:01:02
    INDEX 49 01:01:06
    INDEX 50 01:01:34
    INDEX 51 01:01:38
    INDEX 52 01:01:65
    INDEX 53 01:01:69
    INDEX 54 01:02:61
    INDEX 55 01:02:65
    INDEX 56 01:03:70
    INDEX 57 01:03:74
    INDEX 58 01:04:73
FILE "Mahjong Taikai II Special (Japan) (Rev A) (10M) (Track 23).bin" BINARY
  TRACK 23 AUDIO
    INDEX 00 00:00:00
    INDEX 01 00:02:00
    INDEX 02 00:04:40
    INDEX 03 00:04:44
    INDEX 04 00:06:16
    INDEX 05 00:06:20
    INDEX 06 00:09:44
    INDEX 07 00:09:48
    INDEX 08 00:11:68
    INDEX 09 00:11:72
    INDEX 10 00:15:24
    INDEX 11 00:15:28
    INDEX 12 00:18:38
    INDEX 13 00:18:42
    INDEX 14 00:21:47
    INDEX 15 00:21:51
    INDEX 16 00:24:48
    INDEX 17 00:24:52
    INDEX 18 00:27:42
    INDEX 19 00:27:46
    INDEX 20 00:30:09
    INDEX 21 00:30:13
    INDEX 22 00:32:46
    INDEX 23 00:32:50
    INDEX 24 00:36:03
    INDEX 25 00:36:07
    INDEX 26 00:39:17
    INDEX 27 00:39:21
    INDEX 28 00:42:30
    INDEX 29 00:42:34
    INDEX 30 00:45:09
    INDEX 31 00:45:13
    INDEX 32 00:47:49
    INDEX 33 00:47:53
    INDEX 34 00:50:45
    INDEX 35 00:50:49
    INDEX 36 00:52:70
    INDEX 37 00:52:74
    INDEX 38 00:55:63
    INDEX 39 00:55:67
    INDEX 40 00:59:24
    INDEX 41 00:59:28
    INDEX 42 00:59:49
    INDEX 43 00:59:53
    INDEX 44 01:00:06
    INDEX 45 01:00:10
    INDEX 46 01:00:34
    INDEX 47 01:00:38
    INDEX 48 01:01:08
    INDEX 49 01:01:12
    INDEX 50 01:01:41
    INDEX 51 01:01:45
    INDEX 52 01:01:74
    INDEX 53 01:02:03
    INDEX 54 01:02:65
    INDEX 55 01:02:69
    INDEX 56 01:04:14
    INDEX 57 01:04:18
    INDEX 58 01:04:66
FILE "Mahjong Taikai II Special (Japan) (Rev A) (10M) (Track 24).bin" BINARY
  TRACK 24 AUDIO
    INDEX 00 00:00:00
    INDEX 01 00:02:00
    INDEX 02 00:04:22
    INDEX 03 00:04:26
    INDEX 04 00:06:38
    INDEX 05 00:06:42
    INDEX 06 00:09:68
    INDEX 07 00:09:72
    INDEX 08 00:13:23
    INDEX 09 00:13:27
    INDEX 10 00:15:22
    INDEX 11 00:15:26
    INDEX 12 00:17:58
    INDEX 13 00:17:62
    INDEX 14 00:21:25
    INDEX 15 00:21:29
    INDEX 16 00:24:53
    INDEX 17 00:24:57
    INDEX 18 00:26:62
    INDEX 19 00:26:66
    INDEX 20 00:30:04
    INDEX 21 00:30:08
    INDEX 22 00:32:40
    INDEX 23 00:32:44
    INDEX 24 00:35:66
    INDEX 25 00:35:70
    INDEX 26 00:39:31
    INDEX 27 00:39:35
    INDEX 28 00:42:06
    INDEX 29 00:42:10
    INDEX 30 00:44:50
    INDEX 31 00:44:54
    INDEX 32 00:47:19
    INDEX 33 00:47:23
    INDEX 34 00:50:13
    INDEX 35 00:50:17
    INDEX 36 00:54:04
    INDEX 37 00:54:08
    INDEX 38 00:56:58
    INDEX 39 00:56:62
    INDEX 40 00:59:67
    INDEX 41 00:59:71
    INDEX 42 01:00:22
    INDEX 43 01:00:26
    INDEX 44 01:00:53
    INDEX 45 01:00:57
    INDEX 46 01:01:08
    INDEX 47 01:01:12
    INDEX 48 01:01:54
    INDEX 49 01:01:58
    INDEX 50 01:02:07
    INDEX 51 01:02:11
    INDEX 52 01:02:40
    INDEX 53 01:02:44
    INDEX 54 01:03:28
    INDEX 55 01:03:32
    INDEX 56 01:04:35
    INDEX 57 01:04:39
    INDEX 58 01:05:05
FILE "Mahjong Taikai II Special (Japan) (Rev A) (10M) (Track 25).bin" BINARY
  TRACK 25 AUDIO
    INDEX 00 00:00:00
    INDEX 01 00:02:00
    INDEX 02 00:04:59
    INDEX 03 00:04:63
    INDEX 04 00:07:58
    INDEX 05 00:07:62
    INDEX 06 00:10:31
    INDEX 07 00:10:35
    INDEX 08 00:13:29
    INDEX 09 00:13:33
    INDEX 10 00:17:00
    INDEX 11 00:17:04
    INDEX 12 00:20:53
    INDEX 13 00:20:57
    INDEX 14 00:23:70
    INDEX 15 00:23:74
    INDEX 16 00:26:25
    INDEX 17 00:26:29
    INDEX 18 00:29:44
    INDEX 19 00:29:48
    INDEX 20 00:32:02
    INDEX 21 00:32:06
    INDEX 22 00:35:18
    INDEX 23 00:35:22
    INDEX 24 00:38:25
    INDEX 25 00:38:29
    INDEX 26 00:40:59
    INDEX 27 00:40:63
    INDEX 28 00:44:60
    INDEX 29 00:44:64
    INDEX 30 00:47:20
    INDEX 31 00:47:24
    INDEX 32 00:50:56
    INDEX 33 00:50:60
    INDEX 34 00:53:33
    INDEX 35 00:53:37
    INDEX 36 00:56:51
    INDEX 37 00:56:55
    INDEX 38 00:59:21
    INDEX 39 00:59:25
    INDEX 40 01:02:16
    INDEX 41 01:02:20
    INDEX 42 01:02:48
    INDEX 43 01:02:52
    INDEX 44 01:03:17
    INDEX 45 01:03:21
    INDEX 46 01:03:53
    INDEX 47 01:03:57
    INDEX 48 01:04:34
    INDEX 49 01:04:38
    INDEX 50 01:04:69
    INDEX 51 01:04:73
    INDEX 52 01:05:33
    INDEX 53 01:05:37
    INDEX 54 01:07:56
    INDEX 55 01:07:60
    INDEX 56 01:09:06
    INDEX 57 01:09:10
    INDEX 58 01:09:68
FILE "Mahjong Taikai II Special (Japan) (Rev A) (10M) (Track 26).bin" BINARY
  TRACK 26 AUDIO
    INDEX 00 00:00:00
    INDEX 01 00:02:00
    INDEX 02 00:04:23
    INDEX 03 00:04:27
    INDEX 04 00:06:50
    INDEX 05 00:06:54
    INDEX 06 00:08:30
    INDEX 07 00:08:34
    INDEX 08 00:09:56
    INDEX 09 00:09:60
    INDEX 10 00:11:70
    INDEX 11 00:11:74
    INDEX 12 00:15:26
    INDEX 13 00:15:30
    INDEX 14 00:16:45
    INDEX 15 00:16:49
    INDEX 16 00:17:45
    INDEX 17 00:17:49
    INDEX 18 00:20:16
    INDEX 19 00:20:20
    INDEX 20 00:22:28
    INDEX 21 00:22:32
    INDEX 22 00:25:57
    INDEX 23 00:25:61
    INDEX 24 00:28:52
    INDEX 25 00:28:56
    INDEX 26 00:32:12
    INDEX 27 00:32:16
    INDEX 28 00:35:74
    INDEX 29 00:36:03
    INDEX 30 00:37:61
    INDEX 31 00:37:65
    INDEX 32 00:40:36
    INDEX 33 00:40:40
    INDEX 34 00:42:39
    INDEX 35 00:42:43
    INDEX 36 00:44:74
    INDEX 37 00:45:03
    INDEX 38 00:47:67
    INDEX 39 00:47:71
    INDEX 40 00:51:04
    INDEX 41 00:51:08
    INDEX 42 00:51:37
    INDEX 43 00:51:41
    INDEX 44 00:51:72
    INDEX 45 00:52:01
    INDEX 46 00:52:29
    INDEX 47 00:52:33
    INDEX 48 00:53:02
    INDEX 49 00:53:06
    INDEX 50 00:53:34
    INDEX 51 00:53:38
    INDEX 52 00:53:71
    INDEX 53 00:54:00
    INDEX 54 00:55:19
    INDEX 55 00:55:23
    INDEX 56 00:56:28
    INDEX 57 00:56:32
    INDEX 58 00:57:32
FILE "Mahjong Taikai II Special (Japan) (Rev A) (10M) (Track 27).bin" BINARY
  TRACK 27 AUDIO
    INDEX 00 00:00:00
    INDEX 01 00:02:00
    INDEX 02 00:04:41
    INDEX 03 00:04:45
    INDEX 04 00:07:53
    INDEX 05 00:07:57
    INDEX 06 00:10:12
    INDEX 07 00:10:16
    INDEX 08 00:12:72
    INDEX 09 00:13:01
    INDEX 10 00:15:25
    INDEX 11 00:15:29
    INDEX 12 00:18:05
    INDEX 13 00:18:09
    INDEX 14 00:21:02
    INDEX 15 00:21:06
    INDEX 16 00:23:45
    INDEX 17 00:23:49
    INDEX 18 00:26:27
    INDEX 19 00:26:31
    INDEX 20 00:29:02
    INDEX 21 00:29:06
    INDEX 22 00:31:57
    INDEX 23 00:31:61
    INDEX 24 00:34:55
    INDEX 25 00:34:59
    INDEX 26 00:37:05
    INDEX 27 00:37:09
    INDEX 28 00:39:33
    INDEX 29 00:39:37
    INDEX 30 00:41:40
    INDEX 31 00:41:44
    INDEX 32 00:44:52
    INDEX 33 00:44:56
    INDEX 34 00:47:18
    INDEX 35 00:47:22
    INDEX 36 00:50:12
    INDEX 37 00:50:16
    INDEX 38 00:52:05
    INDEX 39 00:52:09
    INDEX 40 00:55:36
    INDEX 41 00:55:40
    INDEX 42 00:55:60
    INDEX 43 00:55:64
    INDEX 44 00:56:20
    INDEX 45 00:56:24
    INDEX 46 00:56:47
    INDEX 47 00:56:51
    INDEX 48 00:57:17
    INDEX 49 00:57:21
    INDEX 50 00:57:50
    INDEX 51 00:57:54
    INDEX 52 00:58:05
    INDEX 53 00:58:09
    INDEX 54 00:59:13
    INDEX 55 00:59:17
    INDEX 56 01:00:10
    INDEX 57 01:00:14
    INDEX 58 01:01:35
FILE "Mahjong Taikai II Special (Japan) (Rev A) (10M) (Track 28).bin" BINARY
  TRACK 28 AUDIO
    INDEX 00 00:00:00
    INDEX 01 00:02:00
    INDEX 02 00:04:26
    INDEX 03 00:04:30
    INDEX 04 00:06:30
    INDEX 05 00:06:34
    INDEX 06 00:09:01
    INDEX 07 00:09:05
    INDEX 08 00:12:38
    INDEX 09 00:12:42
    INDEX 10 00:15:56
    INDEX 11 00:15:60
    INDEX 12 00:19:54
    INDEX 13 00:19:58
    INDEX 14 00:21:65
    INDEX 15 00:21:70
    INDEX 16 00:24:26
    INDEX 17 00:24:30
    INDEX 18 00:26:67
    INDEX 19 00:26:71
    INDEX 20 00:29:15
    INDEX 21 00:29:19
    INDEX 22 00:30:63
    INDEX 23 00:30:67
    INDEX 24 00:32:73
    INDEX 25 00:33:02
    INDEX 26 00:35:47
    INDEX 27 00:35:51
    INDEX 28 00:38:37
    INDEX 29 00:38:41
    INDEX 30 00:40:63
    INDEX 31 00:40:67
    INDEX 32 00:43:28
    INDEX 33 00:43:32
    INDEX 34 00:46:25
    INDEX 35 00:46:29
    INDEX 36 00:48:39
    INDEX 37 00:48:43
    INDEX 38 00:50:45
    INDEX 39 00:50:49
    INDEX 40 00:52:33
    INDEX 41 00:52:37
    INDEX 42 00:53:16
    INDEX 43 00:53:20
    INDEX 44 00:53:66
    INDEX 45 00:53:70
    INDEX 46 00:54:49
    INDEX 47 00:54:53
    INDEX 48 00:55:31
    INDEX 49 00:55:35
    INDEX 50 00:56:21
    INDEX 51 00:56:25
    INDEX 52 00:56:60
    INDEX 53 00:56:64
    INDEX 54 00:57:57
    INDEX 55 00:57:61
    INDEX 56 00:59:08
    INDEX 57 00:59:12
    INDEX 58 01:00:18
FILE "Mahjong Taikai II Special (Japan) (Rev A) (10M) (Track 29).bin" BINARY
  TRACK 29 AUDIO
    INDEX 00 00:00:00
    INDEX 01 00:02:00
    INDEX 02 00:02:22
    INDEX 03 00:02:26
    INDEX 04 00:02:49
    INDEX 05 00:02:53
    INDEX 06 00:03:00
    INDEX 07 00:03:03
    INDEX 08 00:03:34
    INDEX 09 00:03:38
    INDEX 10 00:03:59
    INDEX 11 00:03:63
    INDEX 12 00:04:14
FILE "Mahjong Taikai II Special (Japan) (Rev A) (10M) (Track 30).bin" BINARY
  TRACK 30 AUDIO
    INDEX 00 00:00:00
    INDEX 01 00:02:00
    INDEX 02 00:02:24
    INDEX 03 00:02:28
    INDEX 04 00:02:65
    INDEX 05 00:02:69
    INDEX 06 00:03:18
    INDEX 07 00:03:22
    INDEX 08 00:03:65
    INDEX 09 00:03:69
    INDEX 10 00:04:17
    INDEX 11 00:04:21
    INDEX 12 00:04:56
FILE "Mahjong Taikai II Special (Japan) (Rev A) (10M) (Track 31).bin" BINARY
  TRACK 31 AUDIO
    INDEX 00 00:00:00
    INDEX 01 00:02:00
    INDEX 02 00:02:19
    INDEX 03 00:02:23
    INDEX 04 00:02:48
    INDEX 05 00:02:52
    INDEX 06 00:02:73
    INDEX 07 00:03:02
    INDEX 08 00:03:35
    INDEX 09 00:03:39
    INDEX 10 00:03:62
    INDEX 11 00:03:66
    INDEX 12 00:04:14
FILE "Mahjong Taikai II Special (Japan) (Rev A) (10M) (Track 32).bin" BINARY
  TRACK 32 AUDIO
    INDEX 00 00:00:00
    INDEX 01 00:02:00
    INDEX 02 00:02:22
    INDEX 03 00:02:26
    INDEX 04 00:02:53
    INDEX 05 00:02:57
    INDEX 06 00:03:05
    INDEX 07 00:03:09
    INDEX 08 00:03:48
    INDEX 09 00:03:52
    INDEX 10 00:04:02
    INDEX 11 00:04:06
    INDEX 12 00:04:36
FILE "Mahjong Taikai II Special (Japan) (Rev A) (10M) (Track 33).bin" BINARY
  TRACK 33 AUDIO
    INDEX 00 00:00:00
    INDEX 01 00:02:00
    INDEX 02 00:02:24
    INDEX 03 00:02:28
    INDEX 04 00:02:54
    INDEX 05 00:02:58
    INDEX 06 00:03:08
    INDEX 07 00:03:12
    INDEX 08 00:03:68
    INDEX 09 00:03:72
    INDEX 10 00:04:28
    INDEX 11 00:04:32
    INDEX 12 00:05:01
FILE "Mahjong Taikai II Special (Japan) (Rev A) (10M) (Track 34).bin" BINARY
  TRACK 34 AUDIO
    INDEX 00 00:00:00
    INDEX 01 00:02:00
    INDEX 02 00:02:25
    INDEX 03 00:02:29
    INDEX 04 00:02:57
    INDEX 05 00:02:61
    INDEX 06 00:03:10
    INDEX 07 00:03:14
    INDEX 08 00:03:51
    INDEX 09 00:03:55
    INDEX 10 00:04:04
    INDEX 11 00:04:08
    INDEX 12 00:04:35
